<svg width="32" height="32" viewBox="0 0 32 32" fill="none" xmlns="http://www.w3.org/2000/svg">
<g id="COCO/Line/Notification - 2">
<path id="Vector" d="M15.75 4V5.30616M11.8618 23.3744C14.4459 23.6649 17.0541 23.6649 19.6382 23.3744C19.6199 23.6258 19.5804 23.8753 19.5202 24.1204L19.4136 24.5537C19.0798 25.9115 18.0191 26.9681 16.665 27.2921C16.0634 27.436 15.4366 27.436 14.835 27.2921C13.4809 26.9681 12.4202 25.9115 12.0864 24.5537L11.9798 24.1204C11.9196 23.8753 11.8801 23.6258 11.8618 23.3744ZM7.98614 11.3224C8.70676 8.66276 10.745 6.53922 13.3559 5.69289C14.9605 5.17274 16.7054 5.17188 18.3072 5.70089C20.8718 6.54787 22.835 8.64209 23.5231 11.2649L24.2812 14.1546L24.8887 16.9058C25.0759 17.7531 25.3304 18.6247 25.4646 19.4822C25.4879 19.6309 25.5 19.7833 25.5 19.9385C25.5 21.3246 24.5282 22.5189 23.1761 22.7943L22.6983 22.8917C18.1127 23.8258 13.3873 23.8258 8.80174 22.8917L8.32387 22.7943C6.97181 22.5189 6 21.3246 6 19.9385C6 19.7833 6.01208 19.6309 6.03535 19.4822C6.16956 18.6247 6.42414 17.7531 6.61125 16.9058L7.21875 14.1546L7.98614 11.3224Z" stroke="#363853" stroke-width="2.5" stroke-linecap="round"/>
<circle id="Ellipse 9" cx="26.5" cy="2.5" r="2.5" fill="#FF3333"/>
</g>
</svg>
