<svg width="32" height="32" viewBox="0 0 32 32" fill="none" xmlns="http://www.w3.org/2000/svg">
<path d="M21.5564 25.8661L20.932 24.7832L20.932 24.7832L21.5564 25.8661ZM17.4417 27.848L17.1812 26.6255L17.4417 27.848ZM10.4438 25.8661L9.81939 26.9489L9.81939 26.9489L10.4438 25.8661ZM14.5585 27.848L14.819 26.6255L14.5585 27.848ZM27.0474 20.331L25.8455 19.9873L27.0474 20.331ZM21.7771 25.7388L22.4015 26.8217L22.4015 26.8217L21.7771 25.7388ZM25.3193 23.3599L24.414 22.4979L25.3193 23.3599ZM21.7771 6.26122L22.4015 5.17834L22.4015 5.17834L21.7771 6.26122ZM25.3193 8.64013L24.414 9.50206L24.414 9.50206L25.3193 8.64013ZM27.0474 11.669L25.8455 12.0127L25.8455 12.0127L27.0474 11.669ZM10.4438 6.13393L9.81939 5.05106L9.81939 5.05106L10.4438 6.13393ZM14.5585 4.15197L14.819 5.37453L14.5585 4.15197ZM21.5564 6.13393L20.932 7.21681L20.932 7.21681L21.5564 6.13393ZM17.4417 4.15197L17.1812 5.37453L17.4417 4.15197ZM4.66675 16L3.41675 16L4.66675 16ZM4.95281 11.669L6.15463 12.0127L6.15463 12.0127L4.95281 11.669ZM10.223 6.26122L10.8474 7.3441L10.8474 7.3441L10.223 6.26122ZM6.68088 8.64013L5.77557 7.7782L6.68088 8.64013ZM4.95281 20.331L3.75099 20.6747L4.95281 20.331ZM10.223 25.7388L10.8474 24.6559L10.8474 24.6559L10.223 25.7388ZM6.68088 23.3599L5.77557 24.2218L5.77557 24.2218L6.68088 23.3599ZM10.8474 7.3441L11.0682 7.21681L9.81939 5.05106L9.59864 5.17834L10.8474 7.3441ZM20.932 7.21681L21.1527 7.3441L22.4015 5.17834L22.1808 5.05106L20.932 7.21681ZM21.1527 24.6559L20.932 24.7832L22.1808 26.9489L22.4015 26.8217L21.1527 24.6559ZM11.0682 24.7832L10.8474 24.6559L9.59864 26.8217L9.81939 26.9489L11.0682 24.7832ZM20.932 24.7832C18.8322 25.994 18.0169 26.4474 17.1812 26.6255L17.7022 29.0706C19.0156 28.7907 20.2271 28.0755 22.1808 26.9489L20.932 24.7832ZM9.81939 26.9489C11.7731 28.0755 12.9846 28.7907 14.2979 29.0706L14.819 26.6255C13.9833 26.4474 13.168 25.994 11.0682 24.7832L9.81939 26.9489ZM17.1812 26.6255C16.402 26.7915 15.5981 26.7915 14.819 26.6255L14.2979 29.0706C15.4206 29.3098 16.5796 29.3098 17.7022 29.0706L17.1812 26.6255ZM26.0834 16C26.0834 18.2952 26.072 19.1956 25.8455 19.9873L28.2492 20.6747C28.5949 19.4659 28.5834 18.1458 28.5834 16H26.0834ZM22.4015 26.8217C24.2236 25.771 25.3604 25.1295 26.2246 24.2218L24.414 22.4979C23.8577 23.0822 23.1065 23.5293 21.1527 24.6559L22.4015 26.8217ZM25.8455 19.9873C25.5747 20.9344 25.0822 21.7961 24.414 22.4979L26.2246 24.2218C27.1742 23.2244 27.8684 22.0061 28.2492 20.6747L25.8455 19.9873ZM21.1527 7.3441C23.1065 8.47069 23.8577 8.91777 24.414 9.50206L26.2246 7.7782C25.3604 6.87052 24.2236 6.22898 22.4015 5.17834L21.1527 7.3441ZM28.5834 16C28.5834 13.8542 28.5949 12.5341 28.2492 11.3253L25.8455 12.0127C26.072 12.8044 26.0834 13.7048 26.0834 16H28.5834ZM24.414 9.50206C25.0822 10.2039 25.5747 11.0656 25.8455 12.0127L28.2492 11.3253C27.8684 9.99392 27.1742 8.77561 26.2246 7.7782L24.414 9.50206ZM11.0682 7.21681C13.168 6.00604 13.9833 5.5526 14.819 5.37453L14.2979 2.92942C12.9846 3.20929 11.7731 3.92451 9.81939 5.05106L11.0682 7.21681ZM22.1808 5.05106C20.227 3.92451 19.0156 3.20929 17.7022 2.92942L17.1812 5.37453C18.0169 5.5526 18.8322 6.00604 20.932 7.21681L22.1808 5.05106ZM14.819 5.37453C15.5981 5.20849 16.402 5.20849 17.1812 5.37453L17.7022 2.92942C16.5796 2.69019 15.4206 2.69019 14.2979 2.92942L14.819 5.37453ZM5.91675 16C5.91675 13.7048 5.92821 12.8044 6.15463 12.0127L3.75099 11.3253C3.40528 12.5341 3.41675 13.8542 3.41675 16L5.91675 16ZM9.59864 5.17834C7.77656 6.22898 6.63976 6.87051 5.77557 7.7782L7.58618 9.50206C8.14247 8.91777 8.89362 8.47069 10.8474 7.3441L9.59864 5.17834ZM6.15463 12.0127C6.4255 11.0656 6.91797 10.2039 7.58618 9.50206L5.77557 7.7782C4.82596 8.7756 4.13174 9.99391 3.75099 11.3253L6.15463 12.0127ZM3.41675 16C3.41675 18.1458 3.40529 19.4659 3.75099 20.6747L6.15463 19.9873C5.92821 19.1956 5.91675 18.2952 5.91675 16L3.41675 16ZM10.8474 24.6559C8.89363 23.5293 8.14247 23.0822 7.58619 22.4979L5.77557 24.2218C6.63976 25.1295 7.77656 25.771 9.59864 26.8217L10.8474 24.6559ZM3.75099 20.6747C4.13174 22.0061 4.82596 23.2244 5.77557 24.2218L7.58619 22.4979C6.91797 21.7961 6.4255 20.9344 6.15463 19.9873L3.75099 20.6747ZM16.0001 18.3805C14.7634 18.3805 13.7084 17.3441 13.7084 16H11.2084C11.2084 18.6661 13.3247 20.8805 16.0001 20.8805V18.3805ZM18.2917 16C18.2917 17.3441 17.2367 18.3805 16.0001 18.3805V20.8805C18.6755 20.8805 20.7917 18.6661 20.7917 16H18.2917ZM16.0001 13.6195C17.2367 13.6195 18.2917 14.6559 18.2917 16H20.7917C20.7917 13.3339 18.6755 11.1195 16.0001 11.1195V13.6195ZM16.0001 11.1195C13.3247 11.1195 11.2084 13.3339 11.2084 16H13.7084C13.7084 14.6559 14.7634 13.6195 16.0001 13.6195V11.1195Z" fill="#363853"/>
</svg>
